<svg xmlns="http://www.w3.org/2000/svg" width="1200" height="630" viewBox="0 0 1200 630" fill="none">
  <rect width="1200" height="630" fill="#0f172a"/>
  <rect width="1200" height="630" fill="url(#g)" opacity="0.95"/>
  <circle cx="960" cy="130" r="180" fill="white" opacity="0.06"/>
  <circle cx="180" cy="520" r="220" fill="white" opacity="0.05"/>
  <g transform="translate(120 140)" fill="white" opacity="0.9">
    <circle cx="72" cy="72" r="56" fill="none" stroke="currentColor" stroke-width="12"/>
    <circle cx="72" cy="72" r="12" fill="currentColor"/>
    <g stroke="currentColor" stroke-width="8" stroke-linecap="round">
      <line x1="72" y1="30" x2="72" y2="60"/>
      <line x1="72" y1="30" x2="72" y2="60" transform="rotate(72 72 72)"/>
      <line x1="72" y1="30" x2="72" y2="60" transform="rotate(144 72 72)"/>
      <line x1="72" y1="30" x2="72" y2="60" transform="rotate(216 72 72)"/>
      <line x1="72" y1="30" x2="72" y2="60" transform="rotate(288 72 72)"/>
    </g>
  </g>
  <text x="260" y="230" fill="white" font-family="DM Sans, Arial, sans-serif" font-size="78" font-weight="800">OKaz<tspan fill="#fbbf24">Car</tspan></text>
  <text x="120" y="330" fill="white" font-family="DM Sans, Arial, sans-serif" font-size="64" font-weight="800">Analysez vos annonces auto en 1 clic</text>
  <text x="120" y="400" fill="rgba(255,255,255,0.75)" font-family="DM Sans, Arial, sans-serif" font-size="30">Score de fiabilité, prix marché, détection d'anomalies. Compatible leboncoin et AutoScout24.</text>
  <defs>
    <linearGradient id="g" x1="0" y1="0" x2="1200" y2="630" gradientUnits="userSpaceOnUse">
      <stop stop-color="#1e3a5f"/>
      <stop offset="0.5" stop-color="#1e40af"/>
      <stop offset="1" stop-color="#2563eb"/>
    </linearGradient>
  </defs>
</svg>
