<svg xmlns="http://www.w3.org/2000/svg" width="440" height="280" viewBox="0 0 440 280" fill="none">
  <defs>
    <linearGradient id="bgSmall" x1="24" y1="20" x2="420" y2="280" gradientUnits="userSpaceOnUse">
      <stop stop-color="#1E3A5F"/>
      <stop offset="0.52" stop-color="#1E40AF"/>
      <stop offset="1" stop-color="#2563EB"/>
    </linearGradient>
    <radialGradient id="glowSmall" cx="0" cy="0" r="1" gradientUnits="userSpaceOnUse" gradientTransform="translate(350 48) rotate(123.09) scale(213.985 168.609)">
      <stop stop-color="white" stop-opacity="0.28"/>
      <stop offset="1" stop-color="white" stop-opacity="0"/>
    </radialGradient>
    <filter id="shadowSmall" x="0" y="0" width="440" height="280" filterUnits="userSpaceOnUse" color-interpolation-filters="sRGB">
      <feDropShadow dx="0" dy="18" stdDeviation="22" flood-color="#0F172A" flood-opacity="0.35"/>
    </filter>
  </defs>
  <rect width="440" height="280" rx="28" fill="#0F172A"/>
  <rect width="440" height="280" rx="28" fill="url(#bgSmall)"/>
  <circle cx="378" cy="48" r="88" fill="url(#glowSmall)"/>
  <circle cx="74" cy="236" r="76" fill="white" opacity="0.05"/>
  <g filter="url(#shadowSmall)">
    <rect x="28" y="28" width="384" height="224" rx="24" fill="rgba(255,255,255,0.06)" stroke="rgba(255,255,255,0.12)"/>
  </g>
  <g transform="translate(54 74)">
    <circle cx="44" cy="44" r="34" stroke="white" stroke-width="8"/>
    <circle cx="44" cy="44" r="8" fill="white"/>
    <g stroke="white" stroke-width="5.5" stroke-linecap="round">
      <line x1="44" y1="18" x2="44" y2="36"/>
      <line x1="44" y1="18" x2="44" y2="36" transform="rotate(72 44 44)"/>
      <line x1="44" y1="18" x2="44" y2="36" transform="rotate(144 44 44)"/>
      <line x1="44" y1="18" x2="44" y2="36" transform="rotate(216 44 44)"/>
      <line x1="44" y1="18" x2="44" y2="36" transform="rotate(288 44 44)"/>
    </g>
  </g>
  <text x="152" y="120" fill="white" font-family="DM Sans, Arial, sans-serif" font-size="36" font-weight="800">OKaz<tspan fill="#FBBF24">Car</tspan></text>
  <text x="56" y="178" fill="white" font-family="DM Sans, Arial, sans-serif" font-size="28" font-weight="700">Analyse auto en 1 clic</text>
  <text x="56" y="208" fill="rgba(255,255,255,0.8)" font-family="DM Sans, Arial, sans-serif" font-size="15" font-weight="600">Score, prix marché, alertes utiles.</text>
</svg>
