<svg xmlns="http://www.w3.org/2000/svg" width="1400" height="560" viewBox="0 0 1400 560" fill="none">
  <defs>
    <linearGradient id="bgMarquee" x1="82" y1="24" x2="1320" y2="560" gradientUnits="userSpaceOnUse">
      <stop stop-color="#1E3A5F"/>
      <stop offset="0.52" stop-color="#1E40AF"/>
      <stop offset="1" stop-color="#2563EB"/>
    </linearGradient>
    <radialGradient id="glowMarquee1" cx="0" cy="0" r="1" gradientUnits="userSpaceOnUse" gradientTransform="translate(1120 90) rotate(128.331) scale(350.326 272.979)">
      <stop stop-color="white" stop-opacity="0.24"/>
      <stop offset="1" stop-color="white" stop-opacity="0"/>
    </radialGradient>
    <radialGradient id="glowMarquee2" cx="0" cy="0" r="1" gradientUnits="userSpaceOnUse" gradientTransform="translate(180 500) rotate(-22.63) scale(360 240)">
      <stop stop-color="white" stop-opacity="0.11"/>
      <stop offset="1" stop-color="white" stop-opacity="0"/>
    </radialGradient>
    <filter id="panelShadow" x="770" y="66" width="544" height="432" filterUnits="userSpaceOnUse" color-interpolation-filters="sRGB">
      <feDropShadow dx="0" dy="26" stdDeviation="28" flood-color="#0F172A" flood-opacity="0.35"/>
    </filter>
  </defs>
  <rect width="1400" height="560" rx="32" fill="#0F172A"/>
  <rect width="1400" height="560" rx="32" fill="url(#bgMarquee)"/>
  <circle cx="1130" cy="94" r="180" fill="url(#glowMarquee1)"/>
  <circle cx="174" cy="486" r="220" fill="url(#glowMarquee2)"/>
  <g transform="translate(100 114)">
    <circle cx="70" cy="70" r="56" stroke="white" stroke-width="12"/>
    <circle cx="70" cy="70" r="12" fill="white"/>
    <g stroke="white" stroke-width="8" stroke-linecap="round">
      <line x1="70" y1="28" x2="70" y2="58"/>
      <line x1="70" y1="28" x2="70" y2="58" transform="rotate(72 70 70)"/>
      <line x1="70" y1="28" x2="70" y2="58" transform="rotate(144 70 70)"/>
      <line x1="70" y1="28" x2="70" y2="58" transform="rotate(216 70 70)"/>
      <line x1="70" y1="28" x2="70" y2="58" transform="rotate(288 70 70)"/>
    </g>
  </g>
  <text x="228" y="212" fill="white" font-family="DM Sans, Arial, sans-serif" font-size="78" font-weight="800">OKaz<tspan fill="#FBBF24">Car</tspan></text>
  <text x="100" y="308" fill="white" font-family="DM Sans, Arial, sans-serif" font-size="58" font-weight="800">L’extension qui aide à acheter</text>
  <text x="100" y="376" fill="white" font-family="DM Sans, Arial, sans-serif" font-size="58" font-weight="800">une voiture sans mauvaise surprise</text>
  <text x="100" y="438" fill="rgba(255,255,255,0.78)" font-family="DM Sans, Arial, sans-serif" font-size="28" font-weight="600">Score de fiabilité · Prix marché · Détection d’anomalies</text>
  <g filter="url(#panelShadow)">
    <rect x="806" y="102" width="472" height="356" rx="28" fill="rgba(255,255,255,0.12)" stroke="rgba(255,255,255,0.14)"/>
    <rect x="842" y="138" width="400" height="30" rx="15" fill="rgba(255,255,255,0.12)"/>
    <rect x="842" y="192" width="250" height="124" rx="24" fill="rgba(255,255,255,0.12)"/>
    <rect x="1112" y="192" width="130" height="124" rx="24" fill="rgba(15,23,42,0.3)"/>
    <rect x="842" y="338" width="400" height="24" rx="12" fill="rgba(255,255,255,0.12)"/>
    <rect x="842" y="378" width="312" height="18" rx="9" fill="rgba(255,255,255,0.16)"/>
    <rect x="842" y="408" width="264" height="18" rx="9" fill="rgba(255,255,255,0.1)"/>
    <circle cx="966" cy="254" r="54" stroke="white" stroke-width="10" opacity="0.9"/>
    <path d="M966 200 A54 54 0 1 1 914 272" stroke="#FBBF24" stroke-width="10" stroke-linecap="round"/>
    <text x="942" y="262" fill="white" font-family="DM Sans, Arial, sans-serif" font-size="28" font-weight="800">93</text>
    <text x="1138" y="234" fill="rgba(255,255,255,0.72)" font-family="DM Sans, Arial, sans-serif" font-size="18" font-weight="700">Prix marché</text>
    <text x="1138" y="264" fill="white" font-family="DM Sans, Arial, sans-serif" font-size="30" font-weight="800">16 950 €</text>
    <text x="1138" y="298" fill="#86EFAC" font-family="DM Sans, Arial, sans-serif" font-size="18" font-weight="700">Bonne affaire</text>
  </g>
</svg>
